<?xml version="1.0" encoding="utf-8"?>
<!-- Generator: Adobe Illustrator 24.2.3, SVG Export Plug-In . SVG Version: 6.00 Build 0)  -->
<svg version="1.1" id="Sketch" xmlns="http://www.w3.org/2000/svg" xmlns:xlink="http://www.w3.org/1999/xlink" x="0px" y="0px"
	 viewBox="0 0 118.3 193" style="enable-background:new 0 0 118.3 193;" xml:space="preserve">
<style type="text/css">
	.st0{fill:#FFFFFF;stroke:#000000;stroke-width:0.25;stroke-miterlimit:10;}
	.st1{fill:#F15A24;stroke:#000000;stroke-width:0.25;stroke-miterlimit:10;}
	.st2{fill:#FB5607;}
	.st3{fill:none;stroke:#000000;stroke-width:0.25;stroke-miterlimit:10;}
</style>
<path class="st0" d="M3.5,165.7V190c0,0,0.5,2.6,2.6,2.9h105.5c1.9,0.3,3.7-1.1,4-3c0-0.3,0-0.5,0-0.8v-23.3L3.5,165.7L3.5,165.7z"
	/>
<path class="st1" d="M46,174.1h1.4c2.3,0,4.2,1.9,4.2,4.2v1.4c0,2.3-1.9,4.2-4.2,4.2H46c-2.3,0-4.2-1.9-4.2-4.2v-1.4
	C41.8,176,43.7,174.1,46,174.1z"/>
<path class="st1" d="M21.7,174.1h1.4c2.3,0,4.2,1.9,4.2,4.2v1.4c0,2.3-1.9,4.2-4.2,4.2h-1.4c-2.3,0-4.2-1.9-4.2-4.2v-1.4
	C17.5,176,19.4,174.1,21.7,174.1z"/>
<path class="st1" d="M71.2,174.1h1.4c2.3,0,4.2,1.9,4.2,4.2v1.4c0,2.3-1.9,4.2-4.2,4.2h-1.4c-2.3,0-4.2-1.9-4.2-4.2v-1.4
	C67,176,68.9,174.1,71.2,174.1z"/>
<path class="st1" d="M95.8,174.1h1.4c2.3,0,4.2,1.9,4.2,4.2v1.4c0,2.3-1.9,4.2-4.2,4.2h-1.4c-2.3,0-4.2-1.9-4.2-4.2v-1.4
	C91.6,176,93.5,174.1,95.8,174.1z"/>
<polygon class="st0" points="3.5,165.7 3.5,157 115.7,157 115.7,165.7 "/>
<rect x="3.5" y="148.8" class="st0" width="112.2" height="8.2"/>
<rect x="3.5" y="126.1" class="st0" width="112.2" height="22.7"/>
<rect x="20.3" y="92.4" class="st0" width="78.1" height="19"/>
<rect x="20.3" y="83.2" class="st0" width="78.1" height="9.3"/>
<rect x="20.3" y="64.8" class="st0" width="78.1" height="18.3"/>
<path class="st1" d="M24.9,54.5c0,0-5.9,1.7-7,6.3v8.1c0.4,2.1,1.4,4,3,5.5c1.6,0.7,3.4,0.7,5,0c1-0.9,2.1-1.9,3.1-3s2-2.2,2.8-3.2
	c0.2-0.2,1.6-1.8,3.9-1.7c2.6,0.1,3.9,2.3,4,2.5c0.5,0.8,1.2,1.8,2.2,2.8c1.2,1.2,2.4,2,3.4,2.6c0.3,0.2,1.2,0.5,2.2,0.4
	c1.5-0.2,2.4-1.1,2.6-1.4c0.4-0.9,1.1-2.2,2.2-3.5c1.2-1.4,2.4-2.3,3.3-2.8c0.5-0.3,2.1-1.1,4.1-0.9c1.7,0.2,2.9,0.9,3.4,1.3
	c0.5,0.5,1.3,1.3,2,2.5c0.7,1.2,0.8,1.8,1.4,2.6c0.5,0.7,1.5,1.7,3.4,2.4c0.4,0.1,1,0.2,1.7,0.2c1.1,0,2-0.3,2.5-0.5
	c0.8-0.4,2.1-1.1,3.2-2.3c1.4-1.4,2.1-2.9,2.5-3.8c0.2-0.2,1.5-1.9,3.7-2c2.8-0.2,4.4,2.2,4.5,2.3c1,2,2.3,3.3,3.2,4.1
	c1.1,1,2.2,2,4,2.2c1.5,0.2,2.7-0.2,3.2-0.4c0,0,2.9-1,2.7-4.9V61c0,0-1.9-6.4-7.3-6.3s-0.6,0-0.6,0H24.9V54.5z"/>
<path class="st0" d="M33.8,54.5V26.8c2.6-0.7,5.4-0.7,8,0v27.7H33.8z"/>
<path class="st0" d="M55.3,54.5V26.8c2.6-0.7,5.4-0.7,8,0v27.7H55.3z"/>
<path class="st0" d="M77.4,54.5V26.8c2.6-0.7,5.4-0.7,8,0v27.7H77.4z"/>
<path class="st2" d="M37.8,20.7C37.5,20,36.9,19,36,18.1c-0.8-0.9-1.6-1.4-2.2-1.8c0.2-0.6,0.3-1.5,0.3-2.5c0-1.1-0.2-2-0.3-2.6
	c0.4-0.1,1.4-0.5,2.2-1.5c0.8-0.9,1.1-1.9,1.2-2.3c0-2.2,0-4.3,0-6.5c0.7,0.6,1.6,1.4,2.4,2.5c1.1,1.5,1.8,3,2.2,4.1
	c0,2.2,0,4.4,0,6.6C41,16.6,39.7,18.9,37.8,20.7z"/>
<path class="st2" d="M59.2,20.7c-0.3-0.7-0.8-1.6-1.7-2.5c-0.8-0.9-1.7-1.5-2.3-1.9c0.2-0.6,0.3-1.3,0.4-2.2c0-1.2-0.2-2.2-0.4-2.9
	c0.4-0.1,1.4-0.5,2.2-1.5c0.6-0.7,1-1.5,1.2-2.3v-7c0,0,4.9,5.7,4.6,7.1v6.6C62.5,16.6,61.1,18.9,59.2,20.7z"/>
<path class="st2" d="M81.4,20.7c-0.3-0.7-0.9-1.8-1.9-2.8c-0.8-0.8-1.5-1.3-2.1-1.6c0.2-0.5,0.5-1.3,0.5-2.3
	c0.1-1.3-0.3-2.3-0.5-2.8c0.4-0.1,1.4-0.5,2.2-1.5c0.6-0.7,1-1.5,1.2-2.3v-7c0,0,4.9,5.7,4.6,7.1v6.6C84.6,16.6,83.3,18.9,81.4,20.7
	z"/>
<path class="st3" d="M99.9,139.7"/>
<path class="st1" d="M9.9,111.4c0,0-8.2,3.2-9.8,9.1v12.6c0.1,1.4,0.6,2.8,1.4,3.9c1.1,1.4,2.7,2.4,4.5,2.8c-2-0.8-2.5-1-2.5-1
	c1.4,1,3.1,1.4,4.8,1.2c1.6-0.3,3-1.4,3.8-2.9c0.6-1.6,1.5-3,2.6-4.3c1.1-1.4,2.5-2.6,4-3.5c2.8-1.9,6.4-2.1,9.3-0.5
	c1.1,0.5,2.1,1.2,3,1.9c1.3,1.1,2.4,2.5,3.2,4c0.6,2,2,3.7,3.8,4.7c1.1,0.6,2.4,1,3.6,1c1.3,0.1,2.7-0.1,3.9-0.6
	c1.9-0.8,3.4-2.1,4.4-3.9c1.3-2.4,0.4-3.4,2-5.7c0.7-1.1,1.8-2.1,3-2.6c1.4-0.6,3-0.8,4.5-0.6c1.2,0.2,2.4,0.6,3.5,1.2
	c1.3,0.6,2.4,1.4,3.3,2.5c2.2,2.9,1.1,5,2.9,7.3c0.8,1,2.3,2.2,5.4,2.6l5.4-1.1c1.3-0.9,2.5-1.9,3.5-3.2c2.7-3.2,2.3-5.4,4.7-7.4
	c1.7-1.3,3.7-2.1,5.9-2.1c4.8,0,7.9,4,8,4.2c1.4,2,1.1,3.1,3,5.7c0.9,1.2,2,2.3,3.2,3.2c1,0.2,2,0.3,3.1,0.2
	c1.2-0.1,2.3-0.3,3.4-0.8c0.9-0.3,1.7-0.9,2.3-1.6c0.9-1.2,1.4-2.8,1.1-4.3v-13.1c0,0-2.9-8.4-9.6-9.2L9.9,111.4z"/>
<path class="st0" d="M100.5,134"/>
<path class="st0" d="M33.8,11.1"/>
</svg>
