<svg xmlns="http://www.w3.org/2000/svg" viewBox="0 0 672.98 672.98"><defs><style>.cls-1{fill:#d30074;stroke:#f15a24;stroke-width:10px;}.cls-1,.cls-2,.cls-3,.cls-5{stroke-miterlimit:10;}.cls-2{fill:#fff;}.cls-2,.cls-3,.cls-5{stroke:#000;stroke-width:0.25px;}.cls-3{fill:#f15a24;}.cls-4{fill:#fb5607;}.cls-5{fill:none;}</style></defs><g id="Circle"><rect class="cls-1" x="5" y="5" width="662.98" height="662.98" rx="331.49"/></g><g id="BirthdayCake"><path class="cls-2" d="M239.94,558.12v63.75s1.48,6.83,7.72,7.61H560.93c5.64.79,11-2.88,11.88-7.87V558.38l-332.87-.26Z" transform="translate(-63.55 -63.13)"/><path class="cls-3" d="M366.14,580.16h4.15c6.83,0,12.47,5,12.47,11v3.67c0,6-5.64,11-12.47,11h-4.15c-6.83,0-12.48-5-12.48-11v-3.67C353.66,585.14,359.31,580.16,366.14,580.16Z" transform="translate(-63.55 -63.13)"/><path class="cls-3" d="M441,580.16h4.16c6.83,0,12.47,5,12.47,11v3.67c0,6-5.64,11-12.47,11H441c-6.83,0-12.47-5-12.47-11v-3.67C428.49,585.14,434.13,580.16,441,580.16Z" transform="translate(-63.55 -63.13)"/><path class="cls-3" d="M514,580.16h4.16c6.83,0,12.47,5,12.47,11v3.67c0,6-5.64,11-12.47,11H514c-6.83,0-12.47-5-12.47-11v-3.67C501.54,585.14,507.18,580.16,514,580.16Z" transform="translate(-63.55 -63.13)"/><polygon class="cls-3" points="176.39 494.98 176.39 472.15 509.55 472.15 509.55 494.98 176.39 494.98"/><rect class="cls-3" x="176.39" y="450.64" width="333.17" height="21.52"/><rect class="cls-2" x="176.39" y="391.08" width="333.17" height="59.56"/><rect class="cls-2" x="226.27" y="302.65" width="231.91" height="49.85"/><rect class="cls-3" x="226.27" y="278.52" width="231.91" height="24.4"/><rect class="cls-2" x="226.27" y="230.24" width="231.91" height="48.02"/><path class="cls-3" d="M303.48,266.35s-17.52,4.46-20.79,16.53v21.25a25.59,25.59,0,0,0,8.91,14.43,20.66,20.66,0,0,0,14.85,0c3-2.36,6.24-5,9.21-7.87s5.93-5.77,8.31-8.4a16,16,0,0,1,11.58-4.46,15,15,0,0,1,11.88,6.56,42,42,0,0,0,6.53,7.35,50.38,50.38,0,0,0,10.1,6.82,12.84,12.84,0,0,0,6.53,1.05,12.22,12.22,0,0,0,7.72-3.67,38.53,38.53,0,0,1,6.53-9.19,36.66,36.66,0,0,1,9.8-7.34A23,23,0,0,1,406.82,297a22.44,22.44,0,0,1,10.09,3.41,32.71,32.71,0,0,1,5.94,6.56c2.08,3.15,2.38,4.73,4.16,6.83,1.48,1.83,4.45,4.46,10.09,6.29a23.47,23.47,0,0,0,5,.53,22.64,22.64,0,0,0,7.43-1.31,32.5,32.5,0,0,0,9.5-6,31.55,31.55,0,0,0,7.42-10c.6-.52,4.46-5,11-5.25,8.31-.52,13.06,5.78,13.36,6a36.62,36.62,0,0,0,9.5,10.76c3.27,2.62,6.54,5.24,11.88,5.77a21.56,21.56,0,0,0,9.5-1.05s8.61-2.62,8-12.86V283.4s-5.64-16.79-21.68-16.53-1.78,0-1.78,0H303.48Z" transform="translate(-63.55 -63.13)"/><path class="cls-2" d="M329.91,266.35V193.66a52.06,52.06,0,0,1,23.75,0v72.69Z" transform="translate(-63.55 -63.13)"/><path class="cls-2" d="M393.75,266.35V193.66a52.1,52.1,0,0,1,23.76,0v72.69Z" transform="translate(-63.55 -63.13)"/><path class="cls-2" d="M459.37,266.35V193.66a52.1,52.1,0,0,1,23.76,0v72.69Z" transform="translate(-63.55 -63.13)"/><path class="cls-4" d="M341.79,177.66a23,23,0,0,0-5.35-6.82,30,30,0,0,0-6.53-4.73,20,20,0,0,0,.89-6.56,33.32,33.32,0,0,0-.89-6.82,13.33,13.33,0,0,0,6.53-3.93,13.88,13.88,0,0,0,3.56-6v-17a40.22,40.22,0,0,1,7.13,6.56A42.13,42.13,0,0,1,353.66,143v17.32A40,40,0,0,1,341.79,177.66Z" transform="translate(-63.55 -63.13)"/><path class="cls-4" d="M405.33,177.66a20.58,20.58,0,0,0-5.05-6.56,33.06,33.06,0,0,0-6.83-5,25.39,25.39,0,0,0,1.19-5.77,24.68,24.68,0,0,0-1.19-7.61A13.39,13.39,0,0,0,400,148.8a14.35,14.35,0,0,0,3.56-6V124.4S418.1,139.35,417.21,143v17.32A37.71,37.71,0,0,1,405.33,177.66Z" transform="translate(-63.55 -63.13)"/><path class="cls-4" d="M471.25,177.66a24.12,24.12,0,0,0-5.64-7.35,24.51,24.51,0,0,0-6.24-4.2,15.63,15.63,0,0,0,0-13.38,13.39,13.39,0,0,0,6.54-3.93,14.35,14.35,0,0,0,3.56-6V124.4S484,139.35,483.13,143v17.32A40.12,40.12,0,0,1,471.25,177.66Z" transform="translate(-63.55 -63.13)"/><path class="cls-5" d="M526.19,489.9" transform="translate(-63.55 -63.13)"/><path class="cls-3" d="M258.94,415.64s-24.35,8.4-29.1,23.88v33.06A18.69,18.69,0,0,0,234,482.81a24.07,24.07,0,0,0,13.36,7.35l-7.42-2.63a22.26,22.26,0,0,0,14.25,3.15,16.36,16.36,0,0,0,11.28-7.61,37.78,37.78,0,0,1,7.72-11.28,43.06,43.06,0,0,1,11.88-9.18,29.44,29.44,0,0,1,27.62-1.31,46.31,46.31,0,0,1,8.9,5,37.46,37.46,0,0,1,9.51,10.5,22,22,0,0,0,11.28,12.33,25.63,25.63,0,0,0,10.69,2.62,28.82,28.82,0,0,0,11.58-1.57,25.44,25.44,0,0,0,13.07-10.23c3.86-6.3,1.18-8.93,5.93-15a19.88,19.88,0,0,1,8.91-6.82,28.89,28.89,0,0,1,13.37-1.58,36.6,36.6,0,0,1,10.39,3.15,27,27,0,0,1,9.8,6.56c6.53,7.61,3.26,13.12,8.61,19.16,2.37,2.62,6.83,5.77,16,6.82l16-2.89a43.26,43.26,0,0,0,10.39-8.4c8-8.39,6.83-14.16,14-19.41a31.07,31.07,0,0,1,17.52-5.51c14.25,0,23.46,10.49,23.75,11,4.16,5.25,3.27,8.13,8.91,14.95a45.59,45.59,0,0,0,9.5,8.4A35.34,35.34,0,0,0,560,491a33,33,0,0,0,10.09-2.1,16,16,0,0,0,6.83-4.2c2.68-3.15,4.16-7.35,3.27-11.28V439s-8.61-22-28.51-24.14Z" transform="translate(-63.55 -63.13)"/><path class="cls-2" d="M528,474.94" transform="translate(-63.55 -63.13)"/><path class="cls-3" d="M290.64,581h4.16c6.83,0,12.47,5,12.47,11v3.67c0,6-5.64,11-12.47,11h-4.16c-6.83,0-12.47-5-12.47-11V592C278.17,586,283.81,581,290.64,581Z" transform="translate(-63.55 -63.13)"/></g></svg>