<svg xmlns="http://www.w3.org/2000/svg" viewBox="0 0 672.98 672.98"><defs><style>.cls-1{fill:#d30074;stroke:#f15a24;stroke-width:10px;}.cls-1,.cls-2,.cls-3,.cls-4,.cls-5,.cls-6,.cls-7,.cls-8,.cls-9{stroke-miterlimit:10;}.cls-2,.cls-9{fill:#f2f2f2;}.cls-2,.cls-3,.cls-4,.cls-5,.cls-6{stroke:#000;}.cls-3,.cls-5,.cls-6{fill:#f15a24;}.cls-3{stroke-width:0.5px;}.cls-4{fill:#fff;}.cls-6{stroke-width:0.75px;}.cls-7{fill:#e6e7e8;}.cls-7,.cls-8,.cls-9{stroke:#231f20;stroke-linecap:round;}.cls-8{fill:#e6e6e6;}</style></defs><g id="Circle"><rect class="cls-1" x="5" y="5" width="662.98" height="662.98" rx="331.49"/></g><g id="Sketch"><path class="cls-2" d="M191.37,334.26s-.36-12.49,8.56-22c0,0,4.76-6.74,15.46-8.38s19,8.38,19,8.38,6,7.37,6.56,12.21Z" transform="translate(-67.2 -80.49)"/><path class="cls-2" d="M264.75,321.64s2.68-19.64,18.14-30.31c0,0,11-6.28,24.38,2.19,0,0,12.2,12.89,11.31,23.26l-32.46,2.86Z" transform="translate(-67.2 -80.49)"/><path class="cls-2" d="M340.94,314.75V241.31s-.06-4.1,6.77-3.83h25s4.17.28,4.17,6v71.25Z" transform="translate(-67.2 -80.49)"/><path class="cls-3" d="M352.77,237.47s-5.06-6.82-4.46-21.86c0,0,3-9.57,10.59-14.21,0,0,7.25,4.64,10.22,12.85,0,0,4.76,8.72-4.75,23.22Z" transform="translate(-67.2 -80.49)"/><path class="cls-3" d="M409.17,199.62s-5.06-6.82-4.46-21.86c0,0,3-9.57,10.58-14.21,0,0,7.26,4.64,10.23,12.84,0,0,4.76,8.73-4.76,23.23Z" transform="translate(-67.2 -80.49)"/><path class="cls-3" d="M464.13,237.47s-5.05-6.82-4.46-21.86c0,0,3-9.57,10.59-14.21,0,0,7.26,4.64,10.23,12.85,0,0,4.76,8.72-4.76,23.22Z" transform="translate(-67.2 -80.49)"/><path class="cls-2" d="M452.69,314.75V241.31s-.06-4.1,6.78-3.83h25s4.16.28,4.16,6v71.25Z" transform="translate(-67.2 -80.49)"/><path class="cls-2" d="M396.82,312.29V205.22s-.07-6,6.77-5.58l25,0s4.16.42,4.16,8.78V312.29Z" transform="translate(-67.2 -80.49)"/><path class="cls-2" d="M562.87,321.64s-2.68-19.64-18.14-30.31c0,0-11-6.28-24.38,2.19,0,0-12.2,12.89-11.31,23.26l32.46,2.86Z" transform="translate(-67.2 -80.49)"/><path class="cls-2" d="M635.29,339.31S637,321,624.46,308.38c0,0-9.17-7.8-23.77-2.68,0,0-14.43,9.35-15.8,18.91l30.4,8.81Z" transform="translate(-67.2 -80.49)"/><polygon class="cls-4" points="120.83 506.07 105.97 289.57 583.52 284.65 579.36 371.03 568.99 506.07 120.83 506.07"/><path class="cls-5" d="M182.29,502.91s34.29,14.22,123.5,3.29c0,0,72.58-7.66,146.9-21.32,0,0,72.55-10.94,121.31-9,0,0,37.33-.56,70.41,3.68l-3.93,51.21s-67.07-10.88-107.51-7.6c0,0-64.8,1.09-80.28,3.28,0,0-132.63,12.57-146.9,11.48,0,0-68.25,3.34-121.85-10.91Z" transform="translate(-67.2 -80.49)"/><path class="cls-6" d="M163.93,348q-2.81,32.89-5.63,65.79a15.93,15.93,0,0,0,5.35,12.3,18.62,18.62,0,0,0,10.71,4.38,24.9,24.9,0,0,0,13-2.32,22.24,22.24,0,0,0,9-7.8,19.35,19.35,0,0,0,1.49-5.47,21,21,0,0,0-3.27-13.39c-5.53-10.64-4.58-16.24-2.38-19.41,4.44-6.42,18.43-9.29,18.43-9.29s14.87,1.64,22.6,8.2c0,0,10.11,8.2,8.33,14.21,0,0,1.19,8.2-3.57,19.14,0,0-12.49,25.69-10.11,37.18a30.29,30.29,0,0,0,10.7,18.58,20.38,20.38,0,0,0,19.63-4.37s5.35-.55,4.76-15.85q.88-10.39,1.78-20.78a56.06,56.06,0,0,1,4.71-14.76,59.74,59.74,0,0,1,12.84-17.5c.4-.48,5.18-6.08,12.86-5.63a15.45,15.45,0,0,1,9.44,4,26.75,26.75,0,0,1,3,7.38,26,26,0,0,1,.3,10.39,18.56,18.56,0,0,0,4.76,7.11,21.06,21.06,0,0,0,9.82,5.09,18.91,18.91,0,0,0,7.87.38,19.27,19.27,0,0,0,12.34-7.93c4.48-7,7.52-12.53,9.52-16.4a35.8,35.8,0,0,1,12.48-14.76c.28-.12,4.72-1.88,8.45.43a7.26,7.26,0,0,1,2.85,3.48,31.37,31.37,0,0,1,1.27,5.08,32.21,32.21,0,0,1,.22,8.77,88.29,88.29,0,0,0-.59,24.88,21.3,21.3,0,0,0,3.56,12,23.21,23.21,0,0,0,8.23,7.47,18.43,18.43,0,0,0,7.16,2.37c8.25.7,14-5.28,14.65-6a55,55,0,0,0,4.5-7.5,52.69,52.69,0,0,0,3.63-9.63c1.1-4,2.39-8.27,3.91-12.66,2-5.81,4.18-11.19,6.39-16.13a9.25,9.25,0,0,1,2.23-3.69,11.41,11.41,0,0,1,7.49-3.05,8.72,8.72,0,0,1,3.89,1.31c3.88,2.52,3.67,7.33,3.64,7.75.13,3.47,2,6.12,4.43,6.61a4.91,4.91,0,0,0,2.71-.28s6.54.1,10.7-12.48l6.54-13.12s7.73-7.65,12.49,1.64c0,0,5.95,16.95,4.76,32.26l.16,32.8S489.55,467.93,508,463a33.38,33.38,0,0,0,9.29-4,45.86,45.86,0,0,0,12.28-11,57.92,57.92,0,0,0,5.27-15.08,59,59,0,0,0-3.35-33.28,17.08,17.08,0,0,1-2.42-10.73,18.1,18.1,0,0,1,6.29-11.42,16.62,16.62,0,0,1,10.06-4.64,17.32,17.32,0,0,1,15.66,7.82,35,35,0,0,1,1.26,10.5,36.79,36.79,0,0,1-6.75,19.56,16.21,16.21,0,0,0-.91,13.1,16.71,16.71,0,0,0,5.26,7,16.24,16.24,0,0,0,7.94.62c7.08-1.3,12.77-7.76,14.46-16.29a13.38,13.38,0,0,1,1.39-8.57,14.9,14.9,0,0,1,5.75-5.83,8.57,8.57,0,0,1,6.82.81,6.87,6.87,0,0,1,2.81,7.81,5.36,5.36,0,0,0,1.54,4.57,6.63,6.63,0,0,0,7.46.66,37.12,37.12,0,0,0,5.06-8.11c1.68-3.73,1.89-6,3.86-11.75,1.08-3.16,2.1-5.69,2.78-7.29a6.2,6.2,0,0,1,4.37-1.53,6.06,6.06,0,0,1,5.34,4.62q1.11,6.42,2,13.26a272.78,272.78,0,0,1,2,31.39s1.18,24.61,13.08,23c0,0,13.68-6.56,17.84-21.87,0,0,15.46-65.61-14.27-91.85,0,0-50.55-25.15-124.3-26.25,0,0-114.18-13.12-218.85,0,0,0-65.42,3.83-96.35,12,0,0-35.08,7.11-38.65,9.3a12.14,12.14,0,0,0-5.36,3.28A10.56,10.56,0,0,0,163.93,348Z" transform="translate(-67.2 -80.49)"/><ellipse class="cls-7" cx="132.93" cy="401.1" rx="8.13" ry="7.47"/><ellipse class="cls-7" cx="144.23" cy="476.91" rx="6.94" ry="6.38"/><ellipse class="cls-7" cx="243.3" cy="396.78" rx="12.83" ry="11.8"/><ellipse class="cls-7" cx="250.46" cy="479.96" rx="12.31" ry="11.32"/><ellipse class="cls-7" cx="286.17" cy="395.36" rx="8.13" ry="7.47"/><ellipse class="cls-7" cx="384.49" cy="361.01" rx="8.13" ry="7.47"/><ellipse class="cls-7" cx="411.85" cy="479.96" rx="6.94" ry="6.38"/><ellipse class="cls-8" cx="359.61" cy="475.94" rx="11.31" ry="10.39"/><ellipse class="cls-9" cx="370.92" cy="387.89" rx="8.13" ry="7.47"/><ellipse class="cls-7" cx="540.49" cy="474.85" rx="6.75" ry="6.21"/><ellipse class="cls-7" cx="452.33" cy="463.79" rx="8.13" ry="7.47"/><ellipse class="cls-7" cx="524.78" cy="370.89" rx="8.96" ry="8.24"/><ellipse class="cls-7" cx="503.44" cy="478.67" rx="10.91" ry="10.03"/></g></svg>