<svg xmlns="http://www.w3.org/2000/svg" viewBox="0 0 672.98 672.98"><defs><style>.cls-1{fill:#d30074;stroke:#f15a24;stroke-width:10px;}.cls-1,.cls-2,.cls-3,.cls-4,.cls-5,.cls-6{stroke-miterlimit:10;}.cls-2{fill:#ed1c24;}.cls-2,.cls-3,.cls-4,.cls-5,.cls-6{stroke:#000;}.cls-3{fill:#fff;stroke-width:3px;}.cls-4{fill:#f15a24;}.cls-5,.cls-6{fill:none;}.cls-6{stroke-width:2px;}</style></defs><g id="Circle"><rect class="cls-1" x="5" y="5" width="662.98" height="662.98" rx="331.49"/></g><g id="Sketch"><path class="cls-2" d="M315.11,347.14c2-4.23,3.79-7.61,5.09-10,2-3.62,4.11-7.25,6.7-13.06.13-.31.37-.83.63-1.44A108.51,108.51,0,0,0,333.12,305c.95-3.77,2.42-9.26,4.53-16.13,0-1.47-1.31-37.2-28.46-52.76-15.72-9-31.26-6.19-36.36-5-3.46.79-11.73,4.25-19,12.57-14,16-12.11,37.11-11.74,40.59-23.81-3.57-43.57,5.83-48.74,20.74-1,3-2.43,9-.13,17.68,0,0,4.38,30.47,48.2,41.17h68.73Z" transform="translate(-63.51 -63.51)"/><polygon class="cls-3" points="168.29 363.19 234.18 565.16 450.5 565.16 515.14 363.19 168.29 363.19"/><path class="cls-4" d="M578.65,426.7C595.56,373.88,555,363.83,555,363.83H251.69c-36.05,24.08-19.89,62.87-19.89,62.87Z" transform="translate(-63.51 -63.51)"/><path class="cls-4" d="M555,363.83s17.41-42.8-41-49.49L433.2,363.83Z" transform="translate(-63.51 -63.51)"/><path class="cls-4" d="M433.2,363.83,514,314.34s27.35-85.61-47.25-74.9L327.53,322.66l-17.41,41.17Z" transform="translate(-63.51 -63.51)"/><path class="cls-4" d="M452.13,248.18s5.93-47.53-55-74.29c0,0-41-12-33.57,16.05,0,0,12.43,30.77-14.92,76.25q-3,6.56-5.9,13.55c-3.61,8.67-6.81,17.11-9.64,25.24l-5.59,17.68Z" transform="translate(-63.51 -63.51)"/><polygon class="cls-5" points="287.64 363.19 304.42 565.16 379.01 565.16 400.46 363.19 287.64 363.19"/><line class="cls-6" x1="418.17" y1="565.16" x2="448.01" y2="443.44"/><line class="cls-6" x1="341.72" y1="565.16" x2="341.72" y2="400.3"/><line class="cls-6" x1="264.02" y1="565.16" x2="238.22" y2="443.44"/></g></svg>