<svg xmlns="http://www.w3.org/2000/svg" xmlns:xlink="http://www.w3.org/1999/xlink" viewBox="0 0 681.96 594.08"><defs><style>.cls-1{fill:url(#Gold_Dust);}.cls-10,.cls-11,.cls-12,.cls-13,.cls-14,.cls-17,.cls-18,.cls-19,.cls-2,.cls-20,.cls-21,.cls-22,.cls-23,.cls-24,.cls-3,.cls-4,.cls-5,.cls-6,.cls-7,.cls-8,.cls-9{stroke:#000;stroke-miterlimit:10;}.cls-23,.cls-24,.cls-3,.cls-4,.cls-7{stroke-width:0.5px;}.cls-3{fill:url(#linear-gradient);}.cls-4,.cls-6{fill:#9e005d;}.cls-23,.cls-5{fill:#d4145a;}.cls-14,.cls-15,.cls-7{fill:none;}.cls-17,.cls-8{stroke-width:0.25px;}.cls-8{fill:url(#linear-gradient-2);}.cls-9{fill:#c69c6d;}.cls-10{fill:#8c6239;}.cls-11{fill:#754c24;}.cls-12,.cls-16{fill:#fff;}.cls-13{fill:#593e23;}.cls-17,.cls-22{fill:#f15a24;}.cls-18{fill:#55f3e8;}.cls-19{fill:#42210b;}.cls-20{fill:#c27428;}.cls-21{fill:#fbb03b;}.cls-24{fill:url(#linear-gradient-3);}</style><linearGradient id="Gold_Dust" x1="209.94" y1="468.15" x2="636.71" y2="468.15" gradientUnits="userSpaceOnUse"><stop offset="0" stop-color="#ff7300"/><stop offset="0.18" stop-color="#f97c01"/><stop offset="0.47" stop-color="#ea9602"/><stop offset="0.55" stop-color="#e59e03"/><stop offset="0.87" stop-color="#e5c500"/><stop offset="0.99" stop-color="#bf6f00"/></linearGradient><linearGradient id="linear-gradient" x1="80.76" y1="529.4" x2="761.85" y2="529.4" gradientUnits="userSpaceOnUse"><stop offset="0" stop-color="#f500ab"/><stop offset="0.08" stop-color="#f306a2"/><stop offset="0.22" stop-color="#ef1588"/><stop offset="0.28" stop-color="#ed1e79"/><stop offset="0.61" stop-color="#d4145a"/><stop offset="0.99" stop-color="#9e005d"/></linearGradient><linearGradient id="linear-gradient-2" x1="323.93" y1="454.18" x2="658.29" y2="454.18" gradientUnits="userSpaceOnUse"><stop offset="0.05" stop-color="#d4145a"/><stop offset="0.41" stop-color="#ed1e79" stop-opacity="0.9"/><stop offset="0.99" stop-color="#9e005d"/><stop offset="1" stop-color="#f500ab"/></linearGradient><linearGradient id="linear-gradient-3" x1="207.78" y1="532.25" x2="80.76" y2="532.25" gradientUnits="userSpaceOnUse"><stop offset="0.26" stop-color="#d4145a"/><stop offset="0.56" stop-color="#ed1e79"/><stop offset="0.99" stop-color="#9e005d"/><stop offset="1" stop-color="#f500ab"/></linearGradient></defs><g id="Sketch"><path class="cls-1" d="M574.21,317.26A213.39,213.39,0,0,1,423.33,681.53c-117.85,0-213.39-95.53-213.39-213.39A213.38,213.38,0,0,1,574.21,317.26Z" transform="translate(-80.11 -99.22)"/><path class="cls-2" d="M470,248.94v-10.6l2.08-16,14.17-27.09s5.43-13.64,6.41-23.53,2-13.1-.8-27.09c0,0-9.44-24.15-19-29,0,0-8.11-7.75-18-8.11H442.66s-11.22,2.5-14.61,7.4l-2.05-.18s-4.1-12.21-14.52-13.72c0,0-11.68-3.12-18.63,0,0,0-13.19,1.34-21,10.69,0,0-10.6,9.63-9.35,18,0,0-6.87-2.05-11.32,0s-10.69,4.28-16.49,12.74c0,0-7.84,4.82-11.22,16,0,0-2.59,16.57,2.05,22.27l2.67,4.73-.27,1.78s-15.41,5.34-17.55,9.35c0,0-8.74,8.11-9.27,14.71s-.45,13.9-.45,13.9,5.26,12.38,13.73,13.54c0,0,12.92,8.47,20.4,10.16a100.81,100.81,0,0,0,15.86,2.23h6.6v3.21l2.05.8-4.64,17.37s-4.27,11.29-4.9,17.9c0,0-3.47,14.72-3.38,21,0,0,.71,13.81,5.48,21.92,0,0,5.12,11.31,11.45,16.21a11.38,11.38,0,0,0,6.06,3.66l7.13.8.08,2.19-8.82,12.51L347.47,368l-21.12,2.67s-8.88,9.11-10.76,14a72.12,72.12,0,0,0-5.08,14.62s-6.5,22.45-6.5,23.21l-1.07,1.77s-7.22-35.5-9.27-39l2.23-13.37s.92-6.25-1.07-7.93c0,0-.49-2.25-4.57-2.28,0,0-11.91-1.07-15.25.16l-11.28-.37,1.11-3.83a9.48,9.48,0,0,1,1.69-4.73s2.42-2.9,1.64-4.12c0,0-1.48-5.56-3-5.79,0,0-4.74-.1-5.58,1l-4.72,6.44-3.62,6.79-.8,1.33h-3.93s-.9.68-.53-1.53l-.51-5.07-.39-3.85s-.1-2.27-1.34-2.41l-3.49-1.41s-2.24-.35-2.83.61c0,0-3.06,5.41-3.72,7.79,0,0-1.71,4.46-1.09,5.35a.63.63,0,0,1-.62.52h-3.92s-1.87-10-3.88-10.2c0,0-2.46-2-5.08-1.38,0,0-2.19.7-2.22,1.87l-.22,9.27-.36.44,1.08,11.66,1.32,4.21s1,2.91,6,4.57l16.57,8.61s16.75,2.5,24.23,2.5c0,0,3.39-.89,1.79,4.63l.53,19.61.09,35.19L269,483.3s6,17.73,12.12,20.76c0,0,21.65,14.24,36.44,4.67,0,0,19.61-6.9,22.1-22.94l7.49-40.45.53-5.88L355,460.31l13,34-3,16.47,7-2.09L375.07,491l.17-2.44-7-14.2L364.08,466l-7.25-15.19-4.86-13-2.69-9.32-2.13-9.21-1.27-6.76-.34-2.11-1.71,10.08-2.27,17.64-1.48,10.26-1.59,9.61-3.1,13.21-2.89,9.93-1.82,4.32s-3.54,7.22-5.36,8.56a45.2,45.2,0,0,1-5,5.27l-2.62,1.88s-7.65,1.93-10.85,1.09c0,0-2.76-.62-3.09-.79l.41-.77,7.23-7.06,4.67-6.26,2.53-5.64,1.07-5.63-.47-5.72-3-7.82-4-10.58-4.89-12.88-2.17-5.72.07-1.86,1.72-5.16,1-3,5.43-15.63L318.12,395l3.32-7.85s3.93-7.24,5.81-7.43c0,0,7.58-5.12,14.27-5.21l8.3-.68,13.83-.68,7.55,0,4.58-.11,3.86-3.5,2.09-3.88,3.48-10.7,4.05-12.45.78-2.42.68.24,3.19,2.82,8.47,6,5.47,2.92,4.71,2.32,6.49,2.59,3.76.92.61.42.14,3.09.25,3.87.52,7.82.35,5.18.45.67,4.41-.47,1.43-.15.4-1.89L430.63,366l-.54-7.71-.14-2.06,8.31-6.65L439,349l.44.11,1.35,5.29,1,3.74,1.4,5.48,1.33,5.16.68,2.68.73,1,3.16.64,7.35,1.81,7.08,2.27,5.32,2.46,2.39,1.75s3.72,3.38,3.67,4.78c0,0,1.8,4.34,1.66,4.79v34.16l-.67,5.42-2.12,8.82-.46,1.88-.62-.56q-4.61-18.19-9.22-36.38l1.11,11.86,3.6,22.53.5,3.67.35,6.76.33,6.16.06,1.19.61.65,4.59-3.21,3.06-2.19.43-18.76,1.19-38.26s3.44-12.59,1.19-18.53a10.36,10.36,0,0,0-5.95-.71s3.81-18.18-1.3-23.41c0,0-12.71-16.28-19.84-18.77,0,0,5.82-13.43,8-19.84,0,0,5.34-26.73,6.06-31.07L470,262.9Z" transform="translate(-80.11 -99.22)"/><path class="cls-3" d="M173.2,600.92,104.05,583.1l43.48-45.62s-22.09-11.41-29.94-15.69c0,0-28.27-30.18-36.83-45.86,0,0,21.63,12.59,27.57,12.59,0,0,21.62,5,37.07-1.9,0,0,34-9.74,59.4-23.05,0,0,4,.48,3,27.57l-36,1.42s-12.35,8.8-4.51,13.07c0,0,18.53,23.53,46.33,21.87,0,0,54.18,1,81.27-2.86l68.5-6.59s67-17.47,100.15-36.89c0,0,48.3-31.72,52.4-34.58,0,0,27.27-23.88,61.31-34,0,0,39.92-9.8,64.33-6.59l17.29.36s8.38,16.93,8.38,23.17c0,1.24,11,38.13,11,38.13L705.89,478s18.71,3.74,28.34-.71c0,0,26.2-9.27,27.62-11.94l-16.75,23L726.56,508.6s-15,11-28.87,15.87l-.53,1.78,43.13,45.62-93.21,21.57-.89-2.68L697,530.17a4.37,4.37,0,0,0-2.49-5.35s-27.81-15.68-42.6-16.75-31.72-3-45.62,1.6c0,0-54.18,19.61-68.44,37.43l-44.2,33.5S448.37,613,428.05,622c0,0-48.12,26.38-80.91,28.16,0,0-47.41,4.28-52.4,3.21,0,0-39.92-1.79-56-3.57,0,0-40.28-6.41-48.83-8.55,0,0-15.68-5.35-19.25-20,0,0,0-8.91,1.43-13.55Z" transform="translate(-80.11 -99.22)"/><path class="cls-4" d="M212.88,526.31s-10.11,4.74-33.09-9.27c0,0-14.93-12.58-15-14.14,0,0-1.35-2.65,5.44-9.11l2.76-1.27,33.48-1.33s1.91.9,2.14,2.32c0,0-.95,13.9.48,15.63,0,0,3.09,12.41,3.8,13.36l1.66,4.58Z" transform="translate(-80.11 -99.22)"/><path class="cls-5" d="M222.62,377.79s-7.36,12.6-13.54,41.11c0,0-5.7,31.59-3.57,43.25l2.27,13.58,0,14.21.55,15.44,6.17,21.7,14.74.52S223.57,513,222.86,503c0,0-3.09-20-2.85-31.6v-14.5s2.85-27.56,4.51-34c0,0,10-35.64,11.89-37.31Z" transform="translate(-80.11 -99.22)"/><path class="cls-5" d="M300.56,653.49s21.63,19.67,63.69,31.07c0,0,39.44,10.94,72.95,7.61,0,0,53-6.89,65.34-16.87,0,0,39.45-16.4,57.27-35.41,0,0,23.29-19,35.88-38.73,0,0,16.87-26.38,20.68-36.83,0,0,9.74-22.58,11.4-32.56l-8.33-24.68-2.36.24s-3.57,27.06-13.78,47.25c0,0-9.75,22.82-19.25,35.17,0,0-20.91,27.33-33.27,37.55,0,0-25.19,23.28-52.75,33,0,0-24.71,12.83-58.93,15,0,0-44.91,3.09-67-5.47,0,0-31.72-8.88-44.26-18.1Z" transform="translate(-80.11 -99.22)"/><path class="cls-6" d="M646.19,590.76,697,530.17s.46-3.67-1.89-5c0,0-23.43-12.46-25.06-12.08,0,0-16.65-5.63-19.42-5.12,0,0-21.17-2.05-22.36-1.25l-8.69.71,9,27s8.11,20,11.05,31.18C639.59,565.63,644.14,587.64,646.19,590.76Z" transform="translate(-80.11 -99.22)"/><path class="cls-7" d="M328.79,652.41a130.24,130.24,0,0,0,17,8.47l22.33,7.77s10.82,3.75,17.68,4.74c0,0,20.72,2.94,31.77,2.44,0,0,23.86.25,36.13-2.12,0,0,22.82-4.52,31.78-8.1,0,0,20.17-8.32,29.46-12.89,0,0,16.26-9.86,20.66-13.15,0,0,19.94-15.64,20.91-17.52,0,0,18.91-20.06,23.61-27.23,0,0,9.81-13.05,13.8-20.81l10.47-21.59s4.72-11,6.41-16.89l5.29-21.88,1-5.85s-.45-.75-4.74.29c0,0-19.19,5.87-34,13.19,0,0-18.25,9.42-28.87,15.75,0,0-8.3,7.56-19.56,16.1L506.6,570.77,492.51,581.4l-23.28,16-20.07,12.91s-22.22,14.07-38.55,20.29c0,0-18.72,8.36-27.36,11.2,0,0-18,5.94-21.56,6.22,0,0-12.71,2.36-17.68,2.35l-14.89,1.24Z" transform="translate(-80.11 -99.22)"/><path class="cls-8" d="M323.93,521.85s67.17-16.45,83.57-26.43c0,0,48.47-26.38,80.55-51.57,0,0,20.91-19.48,41.11-33,0,0,21.38-16.39,47.52-21.15,0,0,29.47-7.13,59.17,0,0,0,18.1,6.35,22.44,15.64,0,0-2.13.44-19.29.36,0,0-9.9-1.67-26.74.75,0,0-7.56-.6-32.74,5.59,0,0-19.37,4.82-28.45,11.26,0,0-16.34,7.75-22,13.28,0,0-10.65,6.95-14.14,10.69l-14,9.29-36.75,24.19s-15.14,8.33-25.8,12.56c0,0-31.95,12.18-47.41,16.79L366,517.33s-6.09,1-11.53,1.57Z" transform="translate(-80.11 -99.22)"/><path class="cls-5" d="M622.38,387.33S616,366,608.05,355.22c0,0-21.15-35.29-28.52-39.57,0,0-23.88-24.71-29.1-27s-16.16-14.25-28.64-19.13c0,0-19.48-12-32.55-15,0,0-14.5-4.63-19.25-5.22v15.32s32.32,10.58,42.06,17.47c0,0,23.29,12.47,28.51,18.3,0,0,20.8,16.15,24.72,22.69,0,0,25,27.56,27.09,36.71,0,0,12.23,19.25,13.54,26l.36.63Z" transform="translate(-80.11 -99.22)"/><path class="cls-5" d="M359.26,254.82l-5,17.11s-33.15,10.69-47,23.17l-12.83,10.69s1.33-4.81-.72-7.93a8.93,8.93,0,0,0-5.7-2s-4.28-.53-4.9,1.43c0,0-2.76,2.85-2.58,4.9a7.13,7.13,0,0,0,0,4.81l.72,1.78H268s9.71-10.78,15.42-14.88c0,0,20.05-17.11,34.66-23.79,0,0,25.31-13.64,32.08-14.44C350.17,255.71,356.05,254.47,359.26,254.82Z" transform="translate(-80.11 -99.22)"/><path class="cls-9" d="M394.9,252.15s-10.51,6.24-16.22,25.84v9.45a8.68,8.68,0,0,0-5-3.75s-4.81-.71-7.13,5c0,0-2.13,6.78-.71,11.05,0,0,4.46,7.31,8.38,10.52,0,0,1.78,1.78,5,0,0,0,5.88,18.18,10.16,23.34,0,0,9.44,12.12,18.89,16a45,45,0,0,0,15.15,6.24,11.92,11.92,0,0,0,5.34,0l14.08-13s11.23-13.54,11.76-18.71c0,0,6.95-24.95,6.42-29,0,0,4.63-17.11,4.46-29.23V262s-5.71,8.73-9.81,8.91c0,0-19.78,4.28-38.14-.89,0,0-13-6.24-16.75-12.3a21,21,0,0,1-4.1-5.52Z" transform="translate(-80.11 -99.22)"/><path class="cls-10" d="M378.15,302.41s.71-5,2.67-5.89c0,0,1.25-5-1.33-6a9.57,9.57,0,0,0-6.69,2.31,3.85,3.85,0,0,0,3,1.78s1.37.88,1.13,1.87Z" transform="translate(-80.11 -99.22)"/><path class="cls-11" d="M427.16,314.52l7.66-3.56s1.61-2.85,0-4.63l-5.34-7.67-.18-14.08,3.92,11.85,3.56,7.74s2.5,5.19,0,7.15l-2,2-3.21,1.24Z" transform="translate(-80.11 -99.22)"/><path class="cls-2" d="M411.48,278.17s-7.13-3.57-13.73-3.57a14.86,14.86,0,0,0-10.51,2.86l6.77-5.17s3.74-1.07,10,0c0,0,6.95.95,9.45,2.7v2.29Z" transform="translate(-80.11 -99.22)"/><path class="cls-2" d="M433.93,275.85s3.39-1.36,9.62-.86a16.87,16.87,0,0,1,10.16,1.93s-7.66-1.07-9.89,0c0,0-6.32.54-9.18,2l-1.42-.71Z" transform="translate(-80.11 -99.22)"/><path class="cls-11" d="M410.23,290.45h3.21a12.79,12.79,0,0,0-5.17-8.66s-5.88-1.19-9.45,0l-7.48,6.36V289l7.48-4.46s3.39-1.78,8.38,0Z" transform="translate(-80.11 -99.22)"/><path class="cls-12" d="M391.34,289.66l8.66-5.08a17.33,17.33,0,0,1,6.31,0l3.92,5.87s-2.32,3.67-14.88,1.53Z" transform="translate(-80.11 -99.22)"/><polygon class="cls-2" points="319.89 186.63 319.89 189.26 321.56 191.23 325.3 191.23 327.35 190.35 327.35 188.93 325.66 185.72 320.67 185.72 319.89 186.63"/><path class="cls-13" d="M434,286.68s5.12-4.32,6.19-4.32a31.55,31.55,0,0,1,5.39.22s4.46,2.18,5.44,6.1c0,0,.09,1.38-.58,1.56a29.44,29.44,0,0,1-3.56-4.45,5.86,5.86,0,0,0-3.79-1.79s-3.43-1-6.42,3.39Z" transform="translate(-80.11 -99.22)"/><path class="cls-12" d="M449.88,290.24s-4.14-5.79-5.35-5.66a7.72,7.72,0,0,0-6.28,1l-3.29,4a18.77,18.77,0,0,0,6.54,1.56s6,.4,8-.27Z" transform="translate(-80.11 -99.22)"/><polygon class="cls-2" points="359.43 186.61 359.43 189.01 361.08 190.17 362.82 190.35 364.64 190.35 366.38 190.17 366.83 189.64 366.6 188.53 366.11 187.5 365.22 186.61 364.69 185.99 363.57 185.58 362.31 185.58 360.06 186.07 359.43 186.61"/><path class="cls-14" d="M409.57,321.24s9.51,11.82,12.78,13.9a12,12,0,0,0,4.81,0c2-.6,8.85-11.88,8.85-13.19a145.13,145.13,0,0,1-15.74-1,38.69,38.69,0,0,1-8.85-4h-1.85Z" transform="translate(-80.11 -99.22)"/><path class="cls-12" d="M411.83,318a28.1,28.1,0,0,0,4.9,4.92,27.59,27.59,0,0,0,6.17,3.63,24.85,24.85,0,0,0,7.08.81,7.91,7.91,0,0,0,3.59-2.53c.42-.75.84-1.5,1.25-2.26a56.91,56.91,0,0,1-14.49-.83Z" transform="translate(-80.11 -99.22)"/><path class="cls-15" d="M372,508.73l3.18-18.3s2,1.66-1.59-5.23c0,0-18.61-37.07-18.61-39,0,0-6.42-15-9.74-37.78,0,0-5.71,52-9.51,61.06,0,0-2.37,14.74-10,24,0,0-4.27,5.71-8.31,7.85,0,0-9.75,2.37-14,0,0,0,15.68-12.36,15.68-23.05,0,0,2.38-4.52-1.9-13.07l-12.36-32.56S320,386.35,323.93,383c0,0,4-6.65,18.22-8.55,0,0,21.15-1.91,32.08-1.19,0,0-.72,2.61,6.65-5l9.27-28.52a64.68,64.68,0,0,0,16.28,11.53s10.87,6.06,16.9,6.65l1.39,21,6.78-.71L430,356.19l9.39-7.51,6.06,23.65s22.57,4,26.61,10c0,0,3.68,2.49,4.51,10.1v35.28l-3.47,14.44-10.78-40.19,6.32,39.56.84,16L409.8,494.15,397,500.31Z" transform="translate(-80.11 -99.22)"/><rect class="cls-16" x="214.73" y="259.32" width="51.93" height="9.67"/><path class="cls-17" d="M372.74,507.89l22.58-7.54,1.84-.66,12.44-6,16.19-10,9.89-6.06,33.75-20.19-.79-15.14-6.82-40.2,1.61,2.14L467,417.18l3.12,11.67,2.94,11.32,2.32-9.63.71-5.34V393.92s-.62-8.29-3.92-10.78a19.49,19.49,0,0,0-7.49-4.81s-6.95-3-19.6-5.53L439,349.63l-8.64,7,1.6,21.92-7.93.81-1.25-20.94s-9.35-2.95-10.87-3.75c0,0-11.67-6.15-13.9-7.66,0,0-7.17-5.52-7.57-6.24l-9.09,27.63-6.69,5.7s-10.41-1.76-25.66.27c0,0-12,1-15.15,2.49,0,0-9.27,2-13.05,12.65l-8.78,23-6.51,19.79-.39,1.11,14.12,35.24s1.77,6.48,1,7.58c0,0-.75,7.55-3,10.24a55.87,55.87,0,0,1-11.14,13.19l-1.69,1.52,2.76.44a25.61,25.61,0,0,0,10.51-.89s8.29-6.5,9.89-10.69a78,78,0,0,0,9.18-26.64l5.88-35.92,2.5-23.34,1.78,10.33,4.9,20.77L357.39,451l12.74,25.93,6.15,12.74-2.23,10.61Z" transform="translate(-80.11 -99.22)"/><path class="cls-18" d="M445.16,409.87s1.19-4,0-6.53a8.6,8.6,0,0,0-4-3.34,5.58,5.58,0,0,0-4,1.08s-2.38.95-2.26,2.61c0,0-1.43,3.45,0,5.35,0,0,1.19,2.61,2.73,2.61a11.1,11.1,0,0,0,4.64,0Z" transform="translate(-80.11 -99.22)"/><path class="cls-18" d="M447.77,436.13a4,4,0,0,0,0-3.45s-1.54-3.32-3.44-3.56a5.56,5.56,0,0,0-3.33,0,5.31,5.31,0,0,0-3.33,3.37s-.83,4.23,0,5.06c0,0,1.43,3.09,3.69,3.09h4.33s2.68-2.14,1.49-2.85Z" transform="translate(-80.11 -99.22)"/><path class="cls-19" d="M176.41,355.87V317s1.78-7.49,6.06-7.13h17.64a14.81,14.81,0,0,0,2.81,1s2.49.4,3.29,0a21,21,0,0,0,3.88-.95h30.39s1.82.32,2.94.37c0,0,4.5.13,5.34-.05a4.13,4.13,0,0,0,1.21-.32h31.41a3.73,3.73,0,0,0,1.42.72,10.48,10.48,0,0,0,2.9,1.07,19,19,0,0,0,4.54,0,7.5,7.5,0,0,0,2.63-1.75h21.92s6.2-.61,6.91,5.22v41.09h17.24s12.83.93,12.12,4.14c0,0,2.58,6.77-1.78,7.39s-29.68,3.75-30.12,3.83H295.63l.18-4.36,24.77-.09,13.91-.89s26-2.5,0-5.79l-15.06-.09s-.36,1.78-3.48,2.49l-22.1-.18s-7-2.91-19.25-.71l-93.32-.06a5.75,5.75,0,0,0-3.57-3.33s-11.4,1.91-17.58,3.33c0,0-2.85,1.9,1.19,3.33,0,0,9.5,1.19,14,1.19l41.58,1.66,1.13,5-46.75-1.9-12.15-1.66s-7.15-4.28,0-10.94a11.39,11.39,0,0,1,5.26-2.37Z" transform="translate(-80.11 -99.22)"/><path class="cls-20" d="M214.78,358.54h-33.5V323.38a15.18,15.18,0,0,0,7.13,7.6s3.09,1.66,9.62-1.19l11.29-7.6s6.18-2.62,7.36,1.9c0,0,4,6.65,7.37,8.32a19.21,19.21,0,0,0,10.69.47s4.28-2.38,9-9.74c0,0,5.23-1.66,8.56,0,0,0,10.45,14,17.34,15.21,0,0,6.18,2.14,10-.48,0,0,3.81-2.14,5.23-4.28,0,0,1.19-7.36,2.14-8.08,0,0,5.23-3.32,8.79-.95,0,0,5.7,3.81,9,3.57,0,0,5.7.24,8.79-3.09,0,0,1.19-.48,2.14-5.23h1.9l-.95,36.38s.24,2.12-3.09,2.35H264.72s.44-5,3.29-7.36c0,0,1.19-1.67-1.66-7.84,0,0-4-1.43-6.42.23,0,0-8.08,9.75-9,15h-4.75L245,346.66a8.4,8.4,0,0,0-7.13-2.37s-5,7.13-5.23,14.25h-4.51s-1-10.45-6.42-11.64c0,0-4-.47-4.75,1.43l-.24,10.21Z" transform="translate(-80.11 -99.22)"/><path class="cls-21" d="M247.25,309.86s2.4,0,3.56-1c0,0,2.05-1.16,1.25-6.24,0,0,0-4-2.31-5.61a6.47,6.47,0,0,0-4.28-2.41s-3.57-.44-5.17,2.05a9.21,9.21,0,0,0-2.05,6.87s.62,4.9,2.4,4.63c0,0,1.16,2.17,1.87,1.75Z" transform="translate(-80.11 -99.22)"/><path class="cls-21" d="M291.71,310.86s3.55-4.2,3.09-7.91c0,0,.21-4.91-2.24-5.85,0,0-4.75-1.94-7.48-1.12a22.06,22.06,0,0,0-3.17,2.75,13.62,13.62,0,0,0-1.59,4,10.64,10.64,0,0,0,.52,5.16s1.61,3.1,2.85,2.92a14.47,14.47,0,0,0,3.83.92S291.09,311.68,291.71,310.86Z" transform="translate(-80.11 -99.22)"/><path class="cls-21" d="M208.78,309.86s3.15-.38,3.33-4.72a23.1,23.1,0,0,0,0-6.18s-1.37-4-4.93-3.56c0,0-4.1-1.37-7.07.89a6.39,6.39,0,0,0-2.14,5s-.12,4.22.77,6.06a3.9,3.9,0,0,0,2.79,2.52,9.32,9.32,0,0,0,3.6.74Z" transform="translate(-80.11 -99.22)"/><path class="cls-22" d="M459.77,235.57s6.77-19.6,0-53.46c0,0,7.49,4.63,8.56,11.76l.59,1.66,2.73-.23s5.83-14.62,7.25-25.43c0,0,3-23.17,0-29.11,0,0-8.08-21.5-16.51-23,0,0-13.19-2.61-19.37,0l-7.37,3.69s4.76,10.1,4.76,15.2c0,0,2.37,17.94-4,27.57l-2.74-17.82s-5.7-20.32-12.83-24.24c0,0-5-5.23-10.81-7.13,0,0-15.56-1.54-20,0,0,0-11.29,3.68-14.38,10.81,0,0-3.68,6.54-3.32,8,0,0,9,1.19,10.57,3.21,0,0,10.69,6.18,12,11.64,0,0,5.59,7.49,4.4,13.31,0,0,0,3.45-.95,4.75,0,0-7.13-15.92-10.58-17.11s-7.72-7.6-18.89-7.84c0,0-17.94.72-22.1,5.82,0,0-11.52,7.73-12.59,18.3,0,0-.83,11.29,5.46,15.33,0,0,12.24,8.79,18.18,10.34l3.92,1.42-19.36,1.43s-18.06,4-21.27,11.76c0,0-4.87,12.59,0,21.86,0,0,5.82,10.57,11.88,13.07,0,0,9.86,6.18,17.82,2.73,0,0,10-4.63,12.6-11.17A53.81,53.81,0,0,0,369,211.46s2.85,20.55,4.75,25.9c0,0,.83,3.8,3.09,4.63H386s18.06-8.44,34.81-9.5l32-.24a6.44,6.44,0,0,1,4.87,2.37Z" transform="translate(-80.11 -99.22)"/><path class="cls-9" d="M298,499.69s6.67-2.58,12.59-19.48c0,0,1.91-2.62,0-11.41L295.1,409.87,288,382.78s3.09-7.36,3.56-13.3c0,0-1.18-5.23-6.17-5l-20.68,2.37-5.46-6.41s5-4.76,5.23-7.85c0,0,1.9-5.46.71-7.12,0,0-2.38-.48-3.33,0s-8,9.56-9.8,14c0,0-.06,6.35,2,9.5,0,0-.83,1.07-1.78.48l-11-6.78a1.52,1.52,0,0,1-.54-1.72l2.79-9.21s-.47-4.93-3.38-5.17a2.15,2.15,0,0,0-2.62,2.38l-3.62,11.94s-1.31,4.52,1.43,4.93l4.75,3.57s.12.83-.59.83l-13.07-2.08V357.89s-3.09-7.48-6.18-8.2c0,0-2.13.62-2.2,3.92v.3c.06,3.57.77,17.29.77,17.29S236.41,383.91,242,384c0,0,8.73,3,28.75.24,0,0,1.61-.24,1.19,2.91l.89,61.42.71,29.59s2,8,5.53,11.76c0,0,5.35,6.24,10.69,7.84,0,0,2.68,1.78,4.1,2Z" transform="translate(-80.11 -99.22)"/><path class="cls-11" d="M410.05,317.38v3.92s11.23,12.83,12.12,12.92c0,0,3.74,1.69,5,.35,0,0,6.06-7,6.24-8.34,0,0-2.5,1.57-3.21,1.57a33.78,33.78,0,0,1-6.33-.39,27.66,27.66,0,0,1-6.06-2.91s-4-3.38-4.81-4.18l-2.23-2.94Z" transform="translate(-80.11 -99.22)"/><path class="cls-23" d="M678.27,467.61l18.89,58.64v3.15L677.81,553l-31.1,37.1-.3,1.28.47,1.43h1l91.95-21.49L697.89,527l-.39-1.91,1.69-1.19S719.34,515,724.56,510l20.54-21.73,11.69-16.05,3.82-5.24-8.56,3.43-17.82,6.81s-7.73,3.29-13.07,2.18l-11.08-.8-5.09-1-11.85-4.43-9.61-3.6Z" transform="translate(-80.11 -99.22)"/><path class="cls-24" d="M164.78,502.9s1.2,63.19,8.42,98L104.05,583.1l43.48-45.62-29.94-15.69S85,486,80.76,475.93c0,0,21.86,12.83,27.57,12.59,0,0,24.83,5.23,37.07-1.9,0,0,45.62-14,59.4-23.05l3,12.16v15.41L173,492.52S164,497.31,164.78,502.9Z" transform="translate(-80.11 -99.22)"/><path class="cls-12" d="M474.22,640.08c-8.93-6.39-9.54-21.73-8.39-27.77.77-4.24,2.41-7.37,4.91-9.24a9.24,9.24,0,0,1,8.14-1.53l-1.91,6.1a4.6,4.6,0,0,0-3.79.67c-1,.77-1.77,2.38-2.22,4.7-.7,3.83-.53,16.68,6.29,21.53,1.53,1.06,2.84,1.31,3.91.83,2-1,3.41-4.45,3.67-5.29l4.93,1.56c-.24.76-2.21,6.76-6.6,9.27l-.46.26C480.81,642.06,477.83,642.64,474.22,640.08Z" transform="translate(-80.11 -99.22)"/><path class="cls-12" d="M513.76,622l-4.13,4.48c-.08-.14-.76-1.13-1.76-2.55a20.65,20.65,0,0,1-5.4,6.77,13.78,13.78,0,0,1-1.15.78,7.58,7.58,0,0,1-8,0c-3.47-2.2-5.43-7.14-5.14-13.18.56-11.58,10.46-16.36,10.91-16.55l2.11-1,1,2.2C505.73,611,513.7,621.89,513.76,622Zm-9.31-3.19a105.18,105.18,0,0,1-5.85-10,12.37,12.37,0,0,0-5.17,9.2c-.15,3.71.85,6.64,2.77,7.85a3.11,3.11,0,0,0,3.79-.35C502.25,623.75,503.73,620.65,504.45,618.8Z" transform="translate(-80.11 -99.22)"/><path class="cls-12" d="M515.6,607.06a56.15,56.15,0,0,0,5,10.07l-4.24,4.29c-7.13-10.55-13.07-34-13.32-35l5.07-2.4c.06.1,1.78,7,4.43,14.85L516,587.78l4.89,1.57-3.51,11.57a61.08,61.08,0,0,1,14.37,8l-3.23,5.4A59.55,59.55,0,0,0,515.6,607.06Z" transform="translate(-80.11 -99.22)"/><path class="cls-12" d="M550.81,590.94c.07.45.63,4.44-2.11,9.95a12.83,12.83,0,0,1-5.11,5.55,9.13,9.13,0,0,1-1.44.7,9,9,0,0,1-8.34-.74,16.45,16.45,0,0,1-6.74-11.9,14.75,14.75,0,0,1,3-10.36c5.44-7.11,12.45-3.87,15.4-1.18l1.17,1.08-.36,1.84c-.54,2.93-5.07,9.7-9,15.22a4.56,4.56,0,0,0,3.71.06,6.27,6.27,0,0,0,3.24-3c1.59-3.23,1.39-5.3,1.34-5.39l0,.09Zm-17.27,6.18c2.6-3.61,5.33-7.74,6.76-10.18a4.88,4.88,0,0,0-4.88-.27,5.61,5.61,0,0,0-1.61,1.48,6.94,6.94,0,0,0-1.48,5A10.45,10.45,0,0,0,533.54,597.12Z" transform="translate(-80.11 -99.22)"/><path class="cls-12" d="M565.74,582.28a9.57,9.57,0,0,1,1.12,7.23,11.52,11.52,0,0,1-5.48,7.26,11.81,11.81,0,0,1-4.1,1.41,16.3,16.3,0,0,1-4.63,0l1.24-6.2a15.26,15.26,0,0,0,3.39-.07,5.13,5.13,0,0,0,4.48-3.44,2.57,2.57,0,0,0-.34-2,2.28,2.28,0,0,0-1.79-1.1h-.43c-3.25.23-6.6.27-8.58-1.6a8.8,8.8,0,0,1-2.18-6.81,10.62,10.62,0,0,1,3.66-7.22c4.57-3.93,10-2,10.65-1.78L560.69,574c-1-.32-3.89-.9-5.81.69a3.16,3.16,0,0,0-1.18,2.11,2.35,2.35,0,0,0,.5,1.84c.71.72,4.2.48,5.32.4H560A6.61,6.61,0,0,1,565.74,582.28Z" transform="translate(-80.11 -99.22)"/><path class="cls-12" d="M187.48,621.41A120.85,120.85,0,0,1,196,567.64a115.07,115.07,0,0,1,7.68-15.32l6.11-.39c12.8,19,10.7,64.16,10.56,66.13a28.1,28.1,0,0,1-8.55-24.26l-14.52,4.41c-.47,4.77-.81,10-.92,15.76Zm13.94-33.16,12.15-3.71c-.94-7.38-2.41-14.69-4.84-20.48A98.25,98.25,0,0,0,201.42,588.25Z" transform="translate(-80.11 -99.22)"/><path class="cls-12" d="M267.15,598.79c-.1,7.22-.79,14.25-.8,14.57l-8.31.14c.89-9.27,1.2-20.3.35-24.25-2.09.68-4.79,3.1-6.4,5,0,1.74.07,3.63,0,5.77-.12,7.14-.76,14-.79,14.25l-8.31.14C244,604,244,593.34,243,589.8c-1.81.9-5.19,3.86-7.85,6.9.32,6.94,1.23,14.44,3,18.54l-7.66,4.26c-4.68-10.6-3.73-35-3.69-36l8.27-.69c0,.79,0,1.83-.06,2.94,3.68-3.07,8.19-5.59,12-4.32a5.77,5.77,0,0,1,3.45,3.44c2.94-2.44,6.93-4.74,11.14-4.31C266.53,581,267.43,587.61,267.15,598.79Z" transform="translate(-80.11 -99.22)"/><path class="cls-12" d="M301.59,616.53l-7.23,3.34c0-.25-.23-2.1-.56-4.79-2.74,2.37-6.21,4.8-10,5.63a13.28,13.28,0,0,1-1.75.29c-3.92.25-7.19-1.75-9.14-5.61-2.7-5.51-2.14-13.78,1.61-22,7.19-15.72,21.16-15.43,21.77-15.38l3,.06-.17,3.74C298.7,595.51,301.58,616.36,301.59,616.53Zm-8.78-11c-.54-5.64-1-12.15-1-18.09a15.81,15.81,0,0,0-11.09,9.19c-2.26,5.07-2.79,9.85-1.29,12.89a3.7,3.7,0,0,0,4.51,2.18C287.5,610.9,290.94,607.62,292.81,605.55Z" transform="translate(-80.11 -99.22)"/><path class="cls-12" d="M331,600.84l1.07,9.28-24.32,7.62-3.64-6.94,16.29-30.16-14.58,5.48-1.44-9.18L328.54,568l3.92,6.87L315.7,605.61Z" transform="translate(-80.11 -99.22)"/><path class="cls-12" d="M342.87,563.39c-6.75,1.37-7.62-9-.88-10.36S349.7,562,342.87,563.39Zm15.06,37.82-7.4,5.73c-7.15-10-9.56-34.21-9.78-36.9l8.86-1.89C350.17,575,352.93,594.18,357.93,601.21Z" transform="translate(-80.11 -99.22)"/><path class="cls-12" d="M386.61,572.52l0,1.46a105.94,105.94,0,0,1-.82,16.13l-7.38-1a84.7,84.7,0,0,0,.66-13.55v-1.37c-.21-7.84-.61-9.59-2.15-10.13-1.69.77-5.88,7.31-8.86,13.9.77,6.71,2.08,13.47,4.27,17.54l-6.28,6.84c-7.08-13.43-6.49-42.77-6.45-43.95l7.54-1c0,1.47,0,3.43,0,5.65,3.45-5.55,7.83-10.58,12-9.31C386.12,555.88,386.4,564.68,386.61,572.52Z" transform="translate(-80.11 -99.22)"/><path class="cls-12" d="M428.08,585.16c-1,9.86-7.21,17.46-17.23,21.5a39.87,39.87,0,0,1-7.68,2.22l-.09,0-.49-9,.17-.06c5.6-1,15.24-4.31,16.24-14.27a61.39,61.39,0,0,0-.3-11.8c-3.82,1.89-10.4,4.46-15.75,3.37a11,11,0,0,1-8.21-7,20.8,20.8,0,0,1,1.2-17c3.74-7.38,17.24-11,21.37-11.94l3.67-.86,1.07,3.42C422.4,544.75,429.77,568.7,428.08,585.16Zm-13.79-34c-1.37.46-2.81,1-4.05,1.46-3.23,1.3-5.73,2.65-6.28,3.67a12.26,12.26,0,0,0-.67,9.3,4,4,0,0,0,2.61,2.54c3.15.57,8.62-1.81,11.48-3.4C416.4,559.27,415.12,554.35,414.29,551.18Z" transform="translate(-80.11 -99.22)"/></g><g id="Layer_3" data-name="Layer 3"><path class="cls-12" d="M461.36,572.9c-8.5-8.17-10.42-35.67-9-51.51,1.43-16.11,9.64-26.95,16.88-28.18,7.29-1.39,10.46,10.64,10.8,12l-4,3.89-3.94,3.73c-.57-2-2.26-6-3.88-5.73-2.53.45-6.78,4.41-7.53,13.21-1.23,14.66,1.15,35.39,6.08,40.22,2.19,2,4.66,2.27,6.78.56s4-5.6,5-10.68a43.6,43.6,0,0,0-.23-17.36l-7.75,8.14-3.31-11.27,15.05-16,1.89,4.61c.28.57,6.06,14.71,2.31,33.35-1.91,9.67-5.78,17.4-10.67,21.45l-.62.46C470.62,577.24,465.56,577,461.36,572.9Z" transform="translate(-80.11 -99.22)"/><path class="cls-12" d="M522.71,484.56l-1.11,12.29c-2.56.34-5.74,1.5-6.58,2.33-7.41,7.55-9.26,19.11-9.22,19.2h-.21c1.76,7.27,4.25,15.27,7.65,21.58l-8.34,8.43c-9.38-17.47-12.51-45.26-12.59-46.48l9.41-4.33c0,.09.2,1.5.5,3.75a48,48,0,0,1,7.93-11.19C514.26,486,520.79,484.87,522.71,484.56Z" transform="translate(-80.11 -99.22)"/><path class="cls-12" d="M566.36,511.39l-9,4.36c0-.28-.35-2.37-.84-5.4-3.36,2.92-7.65,5.94-12.33,7.18A18.3,18.3,0,0,1,542,518a11.36,11.36,0,0,1-11.61-5.65c-3.53-6-3.06-15.46,1.4-25.07,8.57-18.4,26.09-19.16,26.86-19.16l3.74-.16-.1,4.26C562.15,487.77,566.34,511.2,566.36,511.39ZM555,499.63c-.83-6.37-1.56-13.71-1.74-20.45a20.64,20.64,0,0,0-13.64,11.3c-2.7,5.92-3.22,11.39-1.25,14.72,1.18,2.08,3.2,2.8,5.71,2.12C548.54,506.11,552.76,502.12,555,499.63Z" transform="translate(-80.11 -99.22)"/><path class="cls-12" d="M605.83,487.78c-4.31,7-10.05,11.67-16.13,13.44a16.56,16.56,0,0,1-4.26.74c-6,.28-11.09-2.68-13.05-7.81-3.48-8.92-3.94-25.6,6-34.78,9.17-8.37,19-5.6,23-3l-6.41,9.34a8.77,8.77,0,0,0-10.74,1.25c-4.49,4.15-5,15-2.44,21.65.7,1.86,2.66,2.87,5,2.78,1.8-.13,6.59-1.13,10.87-8.17Z" transform="translate(-80.11 -99.22)"/><path class="cls-12" d="M646.25,468.58c-.14.79-1.49,7.68-8.38,15.33a20.3,20.3,0,0,1-10.31,6.47,11.1,11.1,0,0,1-2.43.39,12.31,12.31,0,0,1-11.51-5.62c-3.16-4.67-5.54-13.91-3.2-23.22a27.47,27.47,0,0,1,9.93-15.52c11.62-8.88,19.88.18,22.64,6.19l1.09,2.4-1.51,2.84c-2.35,4.56-12.48,13.37-21.13,20.39a6.27,6.27,0,0,0,5.28,2.07A9.66,9.66,0,0,0,633,477c4-4.49,4.85-8,4.82-8.2l0,.18Zm-28,1.09c5.66-4.6,11.8-10,15.16-13.25-1.43-1.85-3.77-3.76-6.83-3a8.64,8.64,0,0,0-3.09,1.6,13,13,0,0,0-4.84,7.54A21,21,0,0,0,618.24,469.67Z" transform="translate(-80.11 -99.22)"/></g></svg>